HIERARCHY
ROOT Hips
{
    OFFSET 0.000000 0.000000 0.000000
    CHANNELS 6 Xposition Yposition Zposition Zrotation Yrotation Xrotation
    JOINT Chest
    {
        OFFSET 0.000000 1.634758 -0.000000
        CHANNELS 3 Zrotation Yrotation Xrotation
        JOINT Chest2
        {
            OFFSET 0.000000 2.197341 0.000000
            CHANNELS 3 Zrotation Yrotation Xrotation
            JOINT Neck
            {
                OFFSET 0.000000 0.961544 0.000000
                CHANNELS 3 Zrotation Yrotation Xrotation
                JOINT Head
                {
                    OFFSET 0.000000 0.632542 -0.032565
                    CHANNELS 3 Zrotation Yrotation Xrotation
                    End Site
                    {
                        OFFSET -0.000001 0.439502 2.922845
                    }
                }
            }
            JOINT LeftCollar
            {
                OFFSET 0.167536 0.778237 -0.168280
                CHANNELS 3 Zrotation Yrotation Xrotation
                JOINT LeftShoulder
                {
                    OFFSET 0.831514 -0.002900 0.006458
                    CHANNELS 3 Zrotation Yrotation Xrotation
                    JOINT LeftElbow
                    {
                        OFFSET 2.272872 -0.026639 0.059314
                        CHANNELS 3 Zrotation Yrotation Xrotation
                        JOINT LeftWrist
                        {
                            OFFSET 2.081982 -0.024402 0.054333
                            CHANNELS 3 Zrotation Yrotation Xrotation
                            JOINT LeftHandThumb1
                            {
                                OFFSET 0.218903 -0.128645 0.283837
                                CHANNELS 3 Zrotation Yrotation Xrotation
                                JOINT LeftHandThumb2
                                {
                                    OFFSET 0.137157 -0.025101 0.077902
                                    CHANNELS 3 Zrotation Yrotation Xrotation
                                    JOINT LeftHandThumb3
                                    {
                                        OFFSET 0.165861 -0.067014 0.039226
                                        CHANNELS 3 Zrotation Yrotation Xrotation
                                        End Site
                                        {
                                            OFFSET 0.241157 -0.045065 0.107930
                                        }
                                    }
                                }
                            }
                            JOINT LeftHandFore1
                            {
                                OFFSET 0.767340 -0.016076 0.196678
                                CHANNELS 3 Zrotation Yrotation Xrotation
                                JOINT LeftHandFore2
                                {
                                    OFFSET 0.208860 0.057445 0.008533
                                    CHANNELS 3 Zrotation Yrotation Xrotation
                                    JOINT LeftHandFore3
                                    {
                                        OFFSET 0.125750 0.030396 0.005086
                                        CHANNELS 3 Zrotation Yrotation Xrotation
                                        End Site
                                        {
                                            OFFSET 0.186719 0.049913 0.003376
                                        }
                                    }
                                }
                            }
                            JOINT LeftHandMiddle1
                            {
                                OFFSET 0.709887 -0.008320 0.018526
                                CHANNELS 3 Zrotation Yrotation Xrotation
                                JOINT LeftHandMiddle2
                                {
                                    OFFSET 0.239210 -0.052813 0.007305
                                    CHANNELS 3 Zrotation Yrotation Xrotation
                                    JOINT LeftHandMiddle3
                                    {
                                        OFFSET 0.130000 -0.066740 0.005386
                                        CHANNELS 3 Zrotation Yrotation Xrotation
                                        End Site
                                        {
                                            OFFSET 0.207416 -0.111906 0.009267
                                        }
                                    }
                                }
                            }
                            JOINT LeftHandRing1
                            {
                                OFFSET 0.743817 -0.005823 -0.153668
                                CHANNELS 3 Zrotation Yrotation Xrotation
                                JOINT LeftHandRing2
                                {
                                    OFFSET 0.352972 0.005175 -0.010835
                                    CHANNELS 3 Zrotation Yrotation Xrotation
                                    JOINT LeftHandRing3
                                    {
                                        OFFSET 0.136383 -0.002034 0.001042
                                        CHANNELS 3 Zrotation Yrotation Xrotation
                                        End Site
                                        {
                                            OFFSET 0.119771 -0.008577 0.001061
                                        }
                                    }
                                }
                            }
                            JOINT LeftHandLittle1
                            {
                                OFFSET 0.689408 -0.053302 -0.308304
                                CHANNELS 3 Zrotation Yrotation Xrotation
                                JOINT LeftHandLittle2
                                {
                                    OFFSET 0.193251 -0.018757 -0.018874
                                    CHANNELS 3 Zrotation Yrotation Xrotation
                                    JOINT LeftHandLittle3
                                    {
                                        OFFSET 0.116994 -0.025997 -0.011519
                                        CHANNELS 3 Zrotation Yrotation Xrotation
                                        End Site
                                        {
                                            OFFSET 0.189726 -0.012367 -0.011818
                                        }
                                    }
                                }
                            }
                        }
                    }
                }
            }
            JOINT RightCollar
            {
                OFFSET -0.167536 0.778237 -0.168280
                CHANNELS 3 Zrotation Yrotation Xrotation
                JOINT RightShoulder
                {
                    OFFSET -0.831514 -0.002900 0.006457
                    CHANNELS 3 Zrotation Yrotation Xrotation
                    JOINT RightElbow
                    {
                        OFFSET -2.272872 -0.026639 0.059313
                        CHANNELS 3 Zrotation Yrotation Xrotation
                        JOINT RightWrist
                        {
                            OFFSET -2.081982 -0.024402 0.054331
                            CHANNELS 3 Zrotation Yrotation Xrotation
                            JOINT RightHandThumb1
                            {
                                OFFSET -0.218911 -0.128571 0.283837
                                CHANNELS 3 Zrotation Yrotation Xrotation
                                JOINT RightHandThumb2
                                {
                                    OFFSET -0.137157 -0.025101 0.077902
                                    CHANNELS 3 Zrotation Yrotation Xrotation
                                    JOINT RightHandThumb3
                                    {
                                        OFFSET -0.165861 -0.067014 0.039226
                                        CHANNELS 3 Zrotation Yrotation Xrotation
                                        End Site
                                        {
                                            OFFSET -0.229436 -0.065997 0.121819
                                        }
                                    }
                                }
                            }
                            JOINT RightHandFore1
                            {
                                OFFSET -0.767344 -0.015991 0.196679
                                CHANNELS 3 Zrotation Yrotation Xrotation
                                JOINT RightHandFore2
                                {
                                    OFFSET -0.209952 0.053308 0.008662
                                    CHANNELS 3 Zrotation Yrotation Xrotation
                                    JOINT RightHandFore3
                                    {
                                        OFFSET -0.126320 0.027905 0.005164
                                        CHANNELS 3 Zrotation Yrotation Xrotation
                                        End Site
                                        {
                                            OFFSET -0.187349 0.046091 0.011947
                                        }
                                    }
                                }
                            }
                            JOINT RightHandMiddle1
                            {
                                OFFSET -0.709887 -0.008302 0.018525
                                CHANNELS 3 Zrotation Yrotation Xrotation
                                JOINT RightHandMiddle2
                                {
                                    OFFSET -0.226783 -0.092519 0.008451
                                    CHANNELS 3 Zrotation Yrotation Xrotation
                                    JOINT RightHandMiddle3
                                    {
                                        OFFSET -0.135487 -0.054791 0.005042
                                        CHANNELS 3 Zrotation Yrotation Xrotation
                                        End Site
                                        {
                                            OFFSET -0.216702 -0.092810 0.007535
                                        }
                                    }
                                }
                            }
                            JOINT RightHandRing1
                            {
                                OFFSET -0.743819 -0.005785 -0.153669
                                CHANNELS 3 Zrotation Yrotation Xrotation
                                JOINT RightHandRing2
                                {
                                    OFFSET -0.352810 -0.012289 -0.010371
                                    CHANNELS 3 Zrotation Yrotation Xrotation
                                    JOINT RightHandRing3
                                    {
                                        OFFSET -0.135801 -0.008990 -0.009071
                                        CHANNELS 3 Zrotation Yrotation Xrotation
                                        End Site
                                        {
                                            OFFSET -0.118924 -0.014680 -0.007859
                                        }
                                    }
                                }
                            }
                            JOINT RightHandLittle1
                            {
                                OFFSET -0.689403 -0.053298 -0.308303
                                CHANNELS 3 Zrotation Yrotation Xrotation
                                JOINT RightHandLittle2
                                {
                                    OFFSET -0.191856 -0.029891 -0.018791
                                    CHANNELS 3 Zrotation Yrotation Xrotation
                                    JOINT RightHandLittle3
                                    {
                                        OFFSET -0.115284 -0.032709 -0.011632
                                        CHANNELS 3 Zrotation Yrotation Xrotation
                                        End Site
                                        {
                                            OFFSET -0.187442 -0.023117 -0.024892
                                        }
                                    }
                                }
                            }
                        }
                    }
                }
            }
        }
    }
    JOINT LeftHip
    {
        OFFSET 0.685143 0.673822 -0.044491
        CHANNELS 3 Zrotation Yrotation Xrotation
        JOINT LeftKnee
        {
            OFFSET 0.085364 -3.750208 0.017676
            CHANNELS 3 Zrotation Yrotation Xrotation
            JOINT LeftAnkle
            {
                OFFSET 0.094583 -4.155206 0.019585
                CHANNELS 3 Zrotation Yrotation Xrotation
                JOINT LeftToe
                {
                    OFFSET -0.000000 -0.395925 0.621478
                    CHANNELS 3 Zrotation Yrotation Xrotation
                    End Site
                    {
                        OFFSET -0.000000 -0.077878 0.321152
                    }
                }
            }
        }
    }
    JOINT RightHip
    {
        OFFSET -0.685143 0.673822 -0.044492
        CHANNELS 3 Zrotation Yrotation Xrotation
        JOINT RightKnee
        {
            OFFSET -0.085364 -3.750208 0.017677
            CHANNELS 3 Zrotation Yrotation Xrotation
            JOINT RightAnkle
            {
                OFFSET -0.094583 -4.155206 0.019585
                CHANNELS 3 Zrotation Yrotation Xrotation
                JOINT RightToe
                {
                    OFFSET -0.000000 -0.395925 0.621478
                    CHANNELS 3 Zrotation Yrotation Xrotation
                    End Site
                    {
                        OFFSET -0.000000 -0.077878 0.321152
                    }
                }
            }
        }
    }
}
MOTION
Frames: 5
Frame Time: 0.033333
0.019572 8.295231 -0.445002 179.323059 8.554111 -179.565262 -2.421065 18.290283 -4.454071 0.179325 -2.812572 -3.649662 3.123139 13.919416 2.754521 -1.155408 21.388844 6.914375 -6.463051 1.341668 -0.322297 -22.626572 -5.281947 0.308152 0.000000 -0.000000 0.000001 13.007312 -2.368386 17.620316 -0.000004 -0.000001 -0.000005 0.000002 0.000004 0.000000 -0.000001 0.000001 0.000003 0.000002 0.000001 0.000001 -0.000001 -0.000000 0.000000 -0.000001 -0.000001 -0.000001 0.000001 0.000001 0.000000 0.000001 -0.000000 -0.000002 0.000001 0.000000 0.000000 0.000001 0.000000 0.000001 0.000001 -0.000000 0.000000 0.000001 -0.000000 0.000000 0.000001 0.000001 -0.000002 -0.000001 -0.000001 0.000001 -0.000001 0.000000 -0.000001 8.399632 1.250621 0.417026 29.661613 -4.732430 0.052616 0.000002 0.000002 -0.000000 -12.465176 1.267171 5.097964 0.000001 0.000002 0.000001 -0.000001 -0.000002 -0.000002 0.000002 -0.000000 -0.000001 0.000002 -0.000001 -0.000000 0.000005 0.000002 0.000001 -0.000000 -0.000000 -0.000000 -0.000002 -0.000003 0.000000 0.000002 0.000002 -0.000000 0.000002 -0.000000 0.000000 -0.000002 -0.000002 -0.000001 0.000004 0.000000 0.000000 0.000003 -0.000000 0.000000 0.000005 -0.000000 -0.000001 0.000002 -0.000000 0.000000 -0.000002 -0.000001 -0.000000 -1.986735 -0.604878 -2.579606 0.026110 0.259633 11.482960 5.516198 9.286828 -13.556720 0.065864 0.386127 -3.950470 -0.655106 -29.053005 -5.389833 -0.032705 -0.290260 12.859655 14.071575 26.632353 -4.503773 0.227058 1.636701 -5.731525
0.019572 8.295231 -0.445002 179.323059 8.554116 -179.565262 -2.418780 18.291048 -4.450005 0.181411 -2.812878 -3.646247 3.108651 13.924479 2.749692 -1.155948 21.397955 6.906493 -6.465226 1.341950 -0.322449 -22.633268 -5.281995 0.308341 0.000001 0.000001 0.000001 13.007696 -2.368364 17.620216 0.000004 -0.000007 0.000003 0.000001 0.000003 -0.000002 0.000004 0.000001 -0.000001 0.000004 -0.000003 0.000008 0.000002 0.000001 0.000000 -0.000001 0.000000 -0.000001 0.000004 -0.000001 0.000005 0.000002 0.000000 -0.000001 -0.000005 -0.000001 -0.000001 -0.000002 -0.000001 0.000007 0.000002 -0.000000 0.000000 -0.000001 -0.000000 -0.000001 -0.000003 0.000000 0.000005 0.000000 -0.000001 0.000001 0.000002 0.000001 0.000001 8.407295 1.256942 0.417445 29.676886 -4.711225 0.053704 -0.000000 -0.000000 0.000000 -12.466631 1.267982 5.155934 0.000000 0.000008 0.000002 0.000001 -0.000002 -0.000000 -0.000000 0.000000 -0.000002 -0.000003 0.000004 0.000002 -0.000001 -0.000001 -0.000000 0.000000 0.000000 0.000000 -0.000001 0.000005 0.000003 0.000003 -0.000001 0.000000 0.000004 0.000001 0.000000 -0.000006 0.000002 0.000002 0.000004 -0.000000 0.000000 0.000004 -0.000000 0.000000 0.000000 0.000006 0.000001 0.000000 -0.000000 0.000001 0.000004 -0.000000 0.000000 -1.986642 -0.604924 -2.580085 0.026111 0.259635 11.483145 5.516666 9.287383 -13.556409 0.065868 0.386151 -3.950310 -0.655192 -29.051519 -5.396485 -0.032771 -0.290547 12.872495 14.068105 26.632975 -4.511158 0.226999 1.635338 -5.726985
0.019572 8.295231 -0.445002 179.323059 8.554116 -179.565262 -2.411993 18.293228 -4.437962 0.187595 -2.813772 -3.636153 3.066575 13.939274 2.735591 -1.157532 21.424593 6.883509 -6.471727 1.342806 -0.322911 -22.652925 -5.282118 0.308931 -0.000000 -0.000001 -0.000001 13.008846 -2.368299 17.619938 -0.000005 -0.000002 -0.000013 0.000009 0.000002 -0.000002 -0.000002 -0.000000 0.000003 0.000007 0.000002 0.000005 -0.000002 -0.000000 -0.000001 0.000002 -0.000000 0.000001 0.000001 0.000004 0.000003 0.000007 0.000001 -0.000001 -0.000005 -0.000000 -0.000002 0.000001 0.000004 0.000005 -0.000000 -0.000000 -0.000001 -0.000000 -0.000000 0.000000 -0.000002 0.000005 0.000003 -0.000000 -0.000001 0.000001 -0.000000 -0.000001 -0.000001 8.429539 1.275096 0.418653 29.721237 -4.650488 0.056873 -0.000003 -0.000000 -0.000000 -12.470731 1.270303 5.320924 0.000004 0.000002 -0.000001 0.000004 -0.000002 -0.000004 -0.000002 -0.000005 0.000002 -0.000003 0.000001 0.000000 -0.000001 -0.000000 0.000000 0.000003 -0.000000 0.000000 -0.000001 0.000001 0.000001 -0.000001 0.000000 0.000000 0.000002 -0.000000 -0.000002 -0.000004 0.000000 0.000002 -0.000003 -0.000001 -0.000000 0.000002 -0.000000 -0.000000 0.000009 0.000004 0.000001 0.000001 -0.000000 0.000001 0.000002 -0.000000 -0.000000 -1.986362 -0.605057 -2.581542 0.026114 0.259650 11.483764 5.518056 9.289018 -13.555521 0.065886 0.386240 -3.949980 -0.655452 -29.047115 -5.416404 -0.032966 -0.291401 12.910934 14.057727 26.634871 -4.533247 0.226826 1.631242 -5.713389
0.019572 8.295231 -0.445002 179.323059 8.554116 -179.565262 -2.400817 18.296806 -4.418198 0.197776 -2.815243 -3.619610 2.999003 13.963207 2.712835 -1.160091 21.467640 6.846354 -6.482302 1.344187 -0.323668 -22.685196 -5.282383 0.309913 -0.000002 -0.000001 0.000001 13.010755 -2.368192 17.619471 -0.000000 -0.000003 0.000007 -0.000002 0.000002 -0.000004 -0.000000 -0.000002 0.000001 0.000005 -0.000004 0.000010 -0.000001 0.000000 -0.000002 -0.000001 -0.000000 0.000000 -0.000002 -0.000002 0.000007 0.000003 -0.000000 0.000003 -0.000002 -0.000001 0.000001 -0.000000 -0.000003 0.000009 0.000000 -0.000001 0.000000 0.000002 0.000000 -0.000001 -0.000005 -0.000002 0.000007 -0.000002 -0.000001 0.000001 -0.000002 -0.000000 0.000000 8.465205 1.303867 0.420602 29.792192 -4.554683 0.061920 0.000001 -0.000000 0.000000 -12.477173 1.273962 5.579556 0.000001 0.000007 0.000006 0.000000 -0.000002 -0.000003 -0.000003 0.000001 -0.000002 -0.000006 0.000005 0.000000 -0.000004 -0.000000 0.000001 -0.000003 -0.000002 -0.000000 -0.000006 0.000004 0.000000 -0.000003 0.000001 0.000000 -0.000001 -0.000000 -0.000000 0.000004 0.000005 0.000000 -0.000003 0.000001 0.000000 -0.000003 -0.000001 -0.000000 0.000006 0.000006 0.000002 -0.000003 -0.000003 0.000000 0.000002 -0.000000 -0.000000 -1.985899 -0.605285 -2.584002 0.026118 0.259674 11.484873 5.520358 9.291731 -13.554094 0.065915 0.386383 -3.949383 -0.655883 -29.039846 -5.449039 -0.033288 -0.292796 12.973930 14.040677 26.637932 -4.569491 0.226540 1.624531 -5.691065
0.019572 8.295231 -0.445002 179.323059 8.554116 -179.565262 -2.385369 18.301750 -4.390963 0.211855 -2.817285 -3.596815 2.908007 13.995683 2.681979 -1.163559 21.525938 6.795960 -6.496924 1.346077 -0.324719 -22.729456 -5.282876 0.311273 0.000001 -0.000000 -0.000001 13.013417 -2.368043 17.618814 0.000000 -0.000005 0.000003 0.000007 0.000004 -0.000004 -0.000001 -0.000001 0.000004 0.000016 -0.000003 0.000009 0.000001 -0.000000 0.000001 0.000001 0.000001 0.000002 -0.000007 -0.000002 0.000008 0.000000 -0.000001 0.000001 0.000000 0.000000 0.000001 0.000002 -0.000002 0.000010 -0.000001 -0.000001 0.000001 0.000000 -0.000000 0.000000 -0.000005 -0.000001 0.000009 0.000002 -0.000001 0.000001 0.000002 0.000001 0.000000 8.513261 1.342051 0.423240 29.886951 -4.428277 0.068713 0.000000 -0.000000 0.000000 -12.485579 1.278802 5.918453 0.000002 0.000012 0.000004 -0.000002 -0.000000 -0.000005 -0.000001 -0.000001 0.000003 -0.000011 0.000006 0.000001 -0.000001 -0.000001 0.000000 0.000002 -0.000000 0.000000 -0.000001 0.000005 -0.000001 0.000001 -0.000001 0.000000 0.000006 0.000001 0.000000 -0.000005 0.000005 0.000001 -0.000001 -0.000000 0.000000 -0.000001 -0.000002 0.000000 0.000002 0.000005 0.000000 0.000001 -0.000001 0.000000 -0.000003 -0.000001 0.000000 -1.985252 -0.605601 -2.587454 0.026126 0.259710 11.486477 5.523555 9.295507 -13.552138 0.065955 0.386581 -3.948534 -0.656483 -29.029766 -5.493982 -0.033732 -0.294724 13.060694 14.017158 26.642099 -4.619460 0.226132 1.615233 -5.660146
